<svg width="80" height="80" viewBox="0 0 80 80" fill="none" xmlns="http://www.w3.org/2000/svg">
<g clip-path="url(#clip0_113_8)">
<path d="M22.1757 26.6935L44.7872 9.45006C46.1036 8.44619 48 9.38491 48 11.0404V69.0912C48 70.7222 46.1527 71.6674 44.8299 70.7132L22.1757 54.371M22.1757 26.6935V54.371M22.1757 26.6935H11C9.89543 26.6935 9 27.589 9 28.6935V52.371C9 53.4755 9.89543 54.371 11 54.371H22.1757" stroke="white" stroke-width="4"/>
<path d="M57 32C57 32 59.5 35 59.5 40C59.5 45 57 48 57 48" stroke="white" stroke-width="4" stroke-linecap="round"/>
<path d="M65 24C65 24 70 29.5 70 40C70 50.5 65 56 65 56" stroke="white" stroke-width="4" stroke-linecap="round"/>
<path d="M22.1757 26.6935L44.7872 9.45006C46.1036 8.44619 48 9.38491 48 11.0404V69.0912C48 70.7222 46.1527 71.6674 44.8299 70.7132L22.1757 54.371M22.1757 26.6935V54.371M22.1757 26.6935H11C9.89543 26.6935 9 27.589 9 28.6935V52.371C9 53.4755 9.89543 54.371 11 54.371H22.1757" stroke="white" stroke-width="4"/>
<path d="M57 32C57 32 59.5 35 59.5 40C59.5 45 57 48 57 48" stroke="white" stroke-width="4" stroke-linecap="round"/>
<path d="M65 24C65 24 70 29.5 70 40C70 50.5 65 56 65 56" stroke="white" stroke-width="4" stroke-linecap="round"/>
</g>
<defs>
<clipPath id="clip0_113_8">
<rect width="80" height="80" fill="white"/>
</clipPath>
</defs>
</svg>
