<svg width="80" height="80" viewBox="0 0 80 80" fill="none" xmlns="http://www.w3.org/2000/svg">
<path d="M20 45.5904V10C20 8.89543 20.8954 8 22 8H58C59.1046 8 60 8.89543 60 10V47" stroke="white" stroke-width="4" stroke-linecap="round"/>
<path d="M20 60.3976V69C20 70.1046 20.8954 71 22 71H58C59.1046 71 60 70.1046 60 69V60" stroke="white" stroke-width="4" stroke-linecap="round"/>
<path d="M28 10L29.1381 11.4819C30.8415 13.6999 33.4793 15 36.2759 15H43.7241C46.5207 15 49.1585 13.6999 50.8619 11.4819L52 10" stroke="white" stroke-width="4" stroke-linecap="round"/>
<path d="M35.0685 54.9804C35.0685 54.9804 4 54.4647 4 43.1203C4 36.6523 10.9926 33.4953 19.7808 32M51.8356 54.9804C51.8356 54.9804 76 56.0117 76 43.1203C76 36.5409 68.9733 33.4722 60.2192 32.0309" stroke="white" stroke-width="4" stroke-linecap="round"/>
<path d="M33.5 48L38.4793 52.6474C39.3093 53.4221 39.3288 54.7315 38.5221 55.5305L33 61" stroke="white" stroke-width="4" stroke-linecap="round"/>
</svg>
